<mxfile host="65bd71144e">
    <diagram id="e86qHsAK-I88GPLO-jpL" name="cloudformation">
        <mxGraphModel dx="1118" dy="782" grid="1" gridSize="10" guides="1" tooltips="1" connect="1" arrows="1" fold="1" page="1" pageScale="1" pageWidth="827" pageHeight="1169" math="0" shadow="0">
            <root>
                <mxCell id="0"/>
                <mxCell id="1" parent="0"/>
                <mxCell id="3" value="" style="rounded=0;whiteSpace=wrap;html=1;" parent="1" vertex="1">
                    <mxGeometry x="80" y="170" width="630" height="230" as="geometry"/>
                </mxCell>
                <mxCell id="23" style="edgeStyle=none;html=1;entryX=0;entryY=0.5;entryDx=0;entryDy=0;entryPerimeter=0;" parent="1" source="2" target="4" edge="1">
                    <mxGeometry relative="1" as="geometry"/>
                </mxCell>
                <mxCell id="2" value="CodePipeline" style="sketch=0;points=[[0,0,0],[0.25,0,0],[0.5,0,0],[0.75,0,0],[1,0,0],[0,1,0],[0.25,1,0],[0.5,1,0],[0.75,1,0],[1,1,0],[0,0.25,0],[0,0.5,0],[0,0.75,0],[1,0.25,0],[1,0.5,0],[1,0.75,0]];outlineConnect=0;fontColor=#232F3E;gradientColor=#4D72F3;gradientDirection=north;fillColor=#3334B9;strokeColor=#ffffff;dashed=0;verticalLabelPosition=bottom;verticalAlign=top;align=center;html=1;fontSize=12;fontStyle=0;aspect=fixed;shape=mxgraph.aws4.resourceIcon;resIcon=mxgraph.aws4.codepipeline;" parent="1" vertex="1">
                    <mxGeometry x="80" y="170" width="70" height="70" as="geometry"/>
                </mxCell>
                <mxCell id="24" style="edgeStyle=none;html=1;entryX=1;entryY=0.5;entryDx=0;entryDy=0;entryPerimeter=0;" parent="1" source="4" target="2" edge="1">
                    <mxGeometry relative="1" as="geometry"/>
                </mxCell>
                <mxCell id="4" value="S3" style="sketch=0;points=[[0,0,0],[0.25,0,0],[0.5,0,0],[0.75,0,0],[1,0,0],[0,1,0],[0.25,1,0],[0.5,1,0],[0.75,1,0],[1,1,0],[0,0.25,0],[0,0.5,0],[0,0.75,0],[1,0.25,0],[1,0.5,0],[1,0.75,0]];outlineConnect=0;fontColor=#232F3E;gradientColor=#60A337;gradientDirection=north;fillColor=#277116;strokeColor=#ffffff;dashed=0;verticalLabelPosition=bottom;verticalAlign=top;align=center;html=1;fontSize=12;fontStyle=0;aspect=fixed;shape=mxgraph.aws4.resourceIcon;resIcon=mxgraph.aws4.s3;" parent="1" vertex="1">
                    <mxGeometry x="280" y="40" width="70" height="70" as="geometry"/>
                </mxCell>
                <mxCell id="11" style="edgeStyle=none;html=1;" parent="1" source="5" target="6" edge="1">
                    <mxGeometry relative="1" as="geometry"/>
                </mxCell>
                <mxCell id="5" value="CodeCommit" style="sketch=0;points=[[0,0,0],[0.25,0,0],[0.5,0,0],[0.75,0,0],[1,0,0],[0,1,0],[0.25,1,0],[0.5,1,0],[0.75,1,0],[1,1,0],[0,0.25,0],[0,0.5,0],[0,0.75,0],[1,0.25,0],[1,0.5,0],[1,0.75,0]];outlineConnect=0;fontColor=#232F3E;gradientColor=#4D72F3;gradientDirection=north;fillColor=#3334B9;strokeColor=#ffffff;dashed=0;verticalLabelPosition=bottom;verticalAlign=top;align=center;html=1;fontSize=12;fontStyle=0;aspect=fixed;shape=mxgraph.aws4.resourceIcon;resIcon=mxgraph.aws4.codecommit;" parent="1" vertex="1">
                    <mxGeometry x="230" y="300" width="70" height="70" as="geometry"/>
                </mxCell>
                <mxCell id="12" style="edgeStyle=none;html=1;entryX=0;entryY=0.486;entryDx=0;entryDy=0;entryPerimeter=0;" parent="1" source="6" target="8" edge="1">
                    <mxGeometry relative="1" as="geometry"/>
                </mxCell>
                <mxCell id="28" style="edgeStyle=none;html=1;entryX=0;entryY=0.5;entryDx=0;entryDy=0;entryPerimeter=0;" parent="1" source="6" target="26" edge="1">
                    <mxGeometry relative="1" as="geometry"/>
                </mxCell>
                <mxCell id="40" style="edgeStyle=none;html=1;entryX=0;entryY=0.5;entryDx=0;entryDy=0;entryPerimeter=0;" parent="1" target="39" edge="1">
                    <mxGeometry relative="1" as="geometry">
                        <mxPoint x="420" y="360" as="sourcePoint"/>
                        <Array as="points">
                            <mxPoint x="450" y="360"/>
                            <mxPoint x="450" y="465"/>
                        </Array>
                    </mxGeometry>
                </mxCell>
                <mxCell id="6" value="CodeBuild" style="sketch=0;points=[[0,0,0],[0.25,0,0],[0.5,0,0],[0.75,0,0],[1,0,0],[0,1,0],[0.25,1,0],[0.5,1,0],[0.75,1,0],[1,1,0],[0,0.25,0],[0,0.5,0],[0,0.75,0],[1,0.25,0],[1,0.5,0],[1,0.75,0]];outlineConnect=0;fontColor=#232F3E;gradientColor=#4D72F3;gradientDirection=north;fillColor=#3334B9;strokeColor=#ffffff;dashed=0;verticalLabelPosition=bottom;verticalAlign=top;align=center;html=1;fontSize=12;fontStyle=0;aspect=fixed;shape=mxgraph.aws4.resourceIcon;resIcon=mxgraph.aws4.codebuild;" parent="1" vertex="1">
                    <mxGeometry x="350" y="300" width="70" height="70" as="geometry"/>
                </mxCell>
                <mxCell id="31" style="edgeStyle=none;html=1;entryX=1;entryY=0.5;entryDx=0;entryDy=0;entryPerimeter=0;" parent="1" source="7" target="26" edge="1">
                    <mxGeometry relative="1" as="geometry"/>
                </mxCell>
                <mxCell id="7" value="CodeBuild" style="sketch=0;points=[[0,0,0],[0.25,0,0],[0.5,0,0],[0.75,0,0],[1,0,0],[0,1,0],[0.25,1,0],[0.5,1,0],[0.75,1,0],[1,1,0],[0,0.25,0],[0,0.5,0],[0,0.75,0],[1,0.25,0],[1,0.5,0],[1,0.75,0]];outlineConnect=0;fontColor=#232F3E;gradientColor=#4D72F3;gradientDirection=north;fillColor=#3334B9;strokeColor=#ffffff;dashed=0;verticalLabelPosition=bottom;verticalAlign=top;align=center;html=1;fontSize=12;fontStyle=0;aspect=fixed;shape=mxgraph.aws4.resourceIcon;resIcon=mxgraph.aws4.codebuild;" parent="1" vertex="1">
                    <mxGeometry x="610" y="300" width="70" height="70" as="geometry"/>
                </mxCell>
                <mxCell id="10" value="" style="group" parent="1" vertex="1" connectable="0">
                    <mxGeometry x="474" y="300" width="80.45999999999998" height="100" as="geometry"/>
                </mxCell>
                <mxCell id="8" value="" style="sketch=0;html=1;aspect=fixed;strokeColor=none;shadow=0;align=center;verticalAlign=top;fillColor=#3B8DF1;shape=mxgraph.gcp2.check_available" parent="10" vertex="1">
                    <mxGeometry width="80.46" height="70" as="geometry"/>
                </mxCell>
                <mxCell id="9" value="Approval" style="text;html=1;strokeColor=none;fillColor=none;align=center;verticalAlign=middle;whiteSpace=wrap;rounded=0;" parent="10" vertex="1">
                    <mxGeometry x="10.230000000000018" y="70" width="60" height="30" as="geometry"/>
                </mxCell>
                <mxCell id="13" style="edgeStyle=none;html=1;" parent="1" source="8" target="7" edge="1">
                    <mxGeometry relative="1" as="geometry"/>
                </mxCell>
                <mxCell id="25" value="artifactアップロード・ダウンロード" style="text;html=1;strokeColor=none;fillColor=none;align=center;verticalAlign=middle;whiteSpace=wrap;rounded=0;" parent="1" vertex="1">
                    <mxGeometry x="40" y="88" width="198" height="30" as="geometry"/>
                </mxCell>
                <mxCell id="34" style="edgeStyle=none;html=1;" parent="1" source="26" target="33" edge="1">
                    <mxGeometry relative="1" as="geometry"/>
                </mxCell>
                <mxCell id="26" value="AWS-CDK" style="sketch=0;points=[[0,0,0],[0.25,0,0],[0.5,0,0],[0.75,0,0],[1,0,0],[0,1,0],[0.25,1,0],[0.5,1,0],[0.75,1,0],[1,1,0],[0,0.25,0],[0,0.5,0],[0,0.75,0],[1,0.25,0],[1,0.5,0],[1,0.75,0]];outlineConnect=0;fontColor=#232F3E;gradientColor=#4D72F3;gradientDirection=north;fillColor=#3334B9;strokeColor=#ffffff;dashed=0;verticalLabelPosition=bottom;verticalAlign=top;align=center;html=1;fontSize=12;fontStyle=0;aspect=fixed;shape=mxgraph.aws4.resourceIcon;resIcon=mxgraph.aws4.cloud_development_kit;" parent="1" vertex="1">
                    <mxGeometry x="474" y="170" width="70" height="70" as="geometry"/>
                </mxCell>
                <mxCell id="29" value="diff" style="text;html=1;strokeColor=none;fillColor=none;align=center;verticalAlign=middle;whiteSpace=wrap;rounded=0;" parent="1" vertex="1">
                    <mxGeometry x="390" y="230" width="48" height="30" as="geometry"/>
                </mxCell>
                <mxCell id="32" value="deploy" style="text;html=1;strokeColor=none;fillColor=none;align=center;verticalAlign=middle;whiteSpace=wrap;rounded=0;" parent="1" vertex="1">
                    <mxGeometry x="590" y="230" width="48" height="30" as="geometry"/>
                </mxCell>
                <mxCell id="37" style="edgeStyle=none;html=1;" parent="1" source="33" target="36" edge="1">
                    <mxGeometry relative="1" as="geometry"/>
                </mxCell>
                <mxCell id="33" value="CloudFormation" style="sketch=0;points=[[0,0,0],[0.25,0,0],[0.5,0,0],[0.75,0,0],[1,0,0],[0,1,0],[0.25,1,0],[0.5,1,0],[0.75,1,0],[1,1,0],[0,0.25,0],[0,0.5,0],[0,0.75,0],[1,0.25,0],[1,0.5,0],[1,0.75,0]];points=[[0,0,0],[0.25,0,0],[0.5,0,0],[0.75,0,0],[1,0,0],[0,1,0],[0.25,1,0],[0.5,1,0],[0.75,1,0],[1,1,0],[0,0.25,0],[0,0.5,0],[0,0.75,0],[1,0.25,0],[1,0.5,0],[1,0.75,0]];outlineConnect=0;fontColor=#232F3E;gradientColor=#F34482;gradientDirection=north;fillColor=#BC1356;strokeColor=#ffffff;dashed=0;verticalLabelPosition=bottom;verticalAlign=top;align=center;html=1;fontSize=12;fontStyle=0;aspect=fixed;shape=mxgraph.aws4.resourceIcon;resIcon=mxgraph.aws4.cloudformation;" parent="1" vertex="1">
                    <mxGeometry x="749" y="170" width="70" height="70" as="geometry"/>
                </mxCell>
                <mxCell id="43" style="edgeStyle=none;html=1;entryX=1;entryY=0.5;entryDx=0;entryDy=0;entryPerimeter=0;" parent="1" source="36" target="39" edge="1">
                    <mxGeometry relative="1" as="geometry">
                        <Array as="points">
                            <mxPoint x="965" y="465"/>
                            <mxPoint x="760" y="465"/>
                        </Array>
                    </mxGeometry>
                </mxCell>
                <mxCell id="36" value="App Runner" style="sketch=0;points=[[0,0,0],[0.25,0,0],[0.5,0,0],[0.75,0,0],[1,0,0],[0,1,0],[0.25,1,0],[0.5,1,0],[0.75,1,0],[1,1,0],[0,0.25,0],[0,0.5,0],[0,0.75,0],[1,0.25,0],[1,0.5,0],[1,0.75,0]];outlineConnect=0;fontColor=#232F3E;gradientColor=#F78E04;gradientDirection=north;fillColor=#D05C17;strokeColor=#ffffff;dashed=0;verticalLabelPosition=bottom;verticalAlign=top;align=center;html=1;fontSize=12;fontStyle=0;aspect=fixed;shape=mxgraph.aws4.resourceIcon;resIcon=mxgraph.aws4.app_runner;" parent="1" vertex="1">
                    <mxGeometry x="930" y="170" width="70" height="70" as="geometry"/>
                </mxCell>
                <mxCell id="39" value="Elastic Container Registry(ECR)" style="sketch=0;points=[[0,0,0],[0.25,0,0],[0.5,0,0],[0.75,0,0],[1,0,0],[0,1,0],[0.25,1,0],[0.5,1,0],[0.75,1,0],[1,1,0],[0,0.25,0],[0,0.5,0],[0,0.75,0],[1,0.25,0],[1,0.5,0],[1,0.75,0]];outlineConnect=0;fontColor=#232F3E;gradientColor=#F78E04;gradientDirection=north;fillColor=#D05C17;strokeColor=#ffffff;dashed=0;verticalLabelPosition=bottom;verticalAlign=top;align=center;html=1;fontSize=12;fontStyle=0;aspect=fixed;shape=mxgraph.aws4.resourceIcon;resIcon=mxgraph.aws4.ecr;" parent="1" vertex="1">
                    <mxGeometry x="650" y="430" width="70" height="70" as="geometry"/>
                </mxCell>
                <mxCell id="41" value="docker push uri:&amp;lt;Commit ID&amp;gt;" style="text;html=1;strokeColor=none;fillColor=none;align=center;verticalAlign=middle;whiteSpace=wrap;rounded=0;" parent="1" vertex="1">
                    <mxGeometry x="470" y="430" width="160" height="30" as="geometry"/>
                </mxCell>
                <mxCell id="44" value="docker pull" style="text;html=1;strokeColor=none;fillColor=none;align=center;verticalAlign=middle;whiteSpace=wrap;rounded=0;" parent="1" vertex="1">
                    <mxGeometry x="760" y="430" width="88" height="30" as="geometry"/>
                </mxCell>
            </root>
        </mxGraphModel>
    </diagram>
    <diagram id="HuQBOt1nAOiI4tZT8co3" name="autodeploy-container">
        <mxGraphModel dx="1118" dy="782" grid="1" gridSize="10" guides="1" tooltips="1" connect="1" arrows="1" fold="1" page="1" pageScale="1" pageWidth="827" pageHeight="1169" math="0" shadow="0">
            <root>
                <mxCell id="7qJfN5stE_c-aM7IWOPl-0"/>
                <mxCell id="7qJfN5stE_c-aM7IWOPl-1" parent="7qJfN5stE_c-aM7IWOPl-0"/>
                <mxCell id="GvgBn40Q0Mq8urKan_AB-0" value="" style="rounded=0;whiteSpace=wrap;html=1;" parent="7qJfN5stE_c-aM7IWOPl-1" vertex="1">
                    <mxGeometry x="80" y="170" width="540" height="120" as="geometry"/>
                </mxCell>
                <mxCell id="GvgBn40Q0Mq8urKan_AB-1" style="edgeStyle=none;html=1;entryX=0;entryY=0.5;entryDx=0;entryDy=0;entryPerimeter=0;" parent="7qJfN5stE_c-aM7IWOPl-1" source="GvgBn40Q0Mq8urKan_AB-2" target="GvgBn40Q0Mq8urKan_AB-4" edge="1">
                    <mxGeometry relative="1" as="geometry"/>
                </mxCell>
                <mxCell id="GvgBn40Q0Mq8urKan_AB-2" value="CodePipeline" style="sketch=0;points=[[0,0,0],[0.25,0,0],[0.5,0,0],[0.75,0,0],[1,0,0],[0,1,0],[0.25,1,0],[0.5,1,0],[0.75,1,0],[1,1,0],[0,0.25,0],[0,0.5,0],[0,0.75,0],[1,0.25,0],[1,0.5,0],[1,0.75,0]];outlineConnect=0;fontColor=#232F3E;gradientColor=#4D72F3;gradientDirection=north;fillColor=#3334B9;strokeColor=#ffffff;dashed=0;verticalLabelPosition=bottom;verticalAlign=top;align=center;html=1;fontSize=12;fontStyle=0;aspect=fixed;shape=mxgraph.aws4.resourceIcon;resIcon=mxgraph.aws4.codepipeline;" parent="7qJfN5stE_c-aM7IWOPl-1" vertex="1">
                    <mxGeometry x="80" y="170" width="70" height="70" as="geometry"/>
                </mxCell>
                <mxCell id="GvgBn40Q0Mq8urKan_AB-3" style="edgeStyle=none;html=1;entryX=1;entryY=0.5;entryDx=0;entryDy=0;entryPerimeter=0;" parent="7qJfN5stE_c-aM7IWOPl-1" source="GvgBn40Q0Mq8urKan_AB-4" target="GvgBn40Q0Mq8urKan_AB-2" edge="1">
                    <mxGeometry relative="1" as="geometry"/>
                </mxCell>
                <mxCell id="GvgBn40Q0Mq8urKan_AB-4" value="S3" style="sketch=0;points=[[0,0,0],[0.25,0,0],[0.5,0,0],[0.75,0,0],[1,0,0],[0,1,0],[0.25,1,0],[0.5,1,0],[0.75,1,0],[1,1,0],[0,0.25,0],[0,0.5,0],[0,0.75,0],[1,0.25,0],[1,0.5,0],[1,0.75,0]];outlineConnect=0;fontColor=#232F3E;gradientColor=#60A337;gradientDirection=north;fillColor=#277116;strokeColor=#ffffff;dashed=0;verticalLabelPosition=bottom;verticalAlign=top;align=center;html=1;fontSize=12;fontStyle=0;aspect=fixed;shape=mxgraph.aws4.resourceIcon;resIcon=mxgraph.aws4.s3;" parent="7qJfN5stE_c-aM7IWOPl-1" vertex="1">
                    <mxGeometry x="280" y="40" width="70" height="70" as="geometry"/>
                </mxCell>
                <mxCell id="GvgBn40Q0Mq8urKan_AB-5" style="edgeStyle=none;html=1;entryX=0;entryY=0.5;entryDx=0;entryDy=0;entryPerimeter=0;" parent="7qJfN5stE_c-aM7IWOPl-1" source="GvgBn40Q0Mq8urKan_AB-6" target="GvgBn40Q0Mq8urKan_AB-14" edge="1">
                    <mxGeometry relative="1" as="geometry">
                        <mxPoint x="370" y="335" as="targetPoint"/>
                    </mxGeometry>
                </mxCell>
                <mxCell id="GvgBn40Q0Mq8urKan_AB-6" value="CodeCommit" style="sketch=0;points=[[0,0,0],[0.25,0,0],[0.5,0,0],[0.75,0,0],[1,0,0],[0,1,0],[0.25,1,0],[0.5,1,0],[0.75,1,0],[1,1,0],[0,0.25,0],[0,0.5,0],[0,0.75,0],[1,0.25,0],[1,0.5,0],[1,0.75,0]];outlineConnect=0;fontColor=#232F3E;gradientColor=#4D72F3;gradientDirection=north;fillColor=#3334B9;strokeColor=#ffffff;dashed=0;verticalLabelPosition=bottom;verticalAlign=top;align=center;html=1;fontSize=12;fontStyle=0;aspect=fixed;shape=mxgraph.aws4.resourceIcon;resIcon=mxgraph.aws4.codecommit;" parent="7qJfN5stE_c-aM7IWOPl-1" vertex="1">
                    <mxGeometry x="230" y="186" width="70" height="70" as="geometry"/>
                </mxCell>
                <mxCell id="GvgBn40Q0Mq8urKan_AB-9" style="edgeStyle=none;html=1;entryX=0;entryY=0.5;entryDx=0;entryDy=0;entryPerimeter=0;exitX=1;exitY=0.5;exitDx=0;exitDy=0;exitPerimeter=0;" parent="7qJfN5stE_c-aM7IWOPl-1" source="GvgBn40Q0Mq8urKan_AB-10" target="GvgBn40Q0Mq8urKan_AB-26" edge="1">
                    <mxGeometry relative="1" as="geometry">
                        <mxPoint x="420" y="360" as="sourcePoint"/>
                    </mxGeometry>
                </mxCell>
                <mxCell id="GvgBn40Q0Mq8urKan_AB-10" value="CodeBuild" style="sketch=0;points=[[0,0,0],[0.25,0,0],[0.5,0,0],[0.75,0,0],[1,0,0],[0,1,0],[0.25,1,0],[0.5,1,0],[0.75,1,0],[1,1,0],[0,0.25,0],[0,0.5,0],[0,0.75,0],[1,0.25,0],[1,0.5,0],[1,0.75,0]];outlineConnect=0;fontColor=#232F3E;gradientColor=#4D72F3;gradientDirection=north;fillColor=#3334B9;strokeColor=#ffffff;dashed=0;verticalLabelPosition=bottom;verticalAlign=top;align=center;html=1;fontSize=12;fontStyle=0;aspect=fixed;shape=mxgraph.aws4.resourceIcon;resIcon=mxgraph.aws4.codebuild;" parent="7qJfN5stE_c-aM7IWOPl-1" vertex="1">
                    <mxGeometry x="500" y="186" width="70" height="70" as="geometry"/>
                </mxCell>
                <mxCell id="GvgBn40Q0Mq8urKan_AB-13" value="" style="group" parent="7qJfN5stE_c-aM7IWOPl-1" vertex="1" connectable="0">
                    <mxGeometry x="360" y="186" width="80.45999999999998" height="100" as="geometry"/>
                </mxCell>
                <mxCell id="GvgBn40Q0Mq8urKan_AB-14" value="" style="sketch=0;html=1;aspect=fixed;strokeColor=none;shadow=0;align=center;verticalAlign=top;fillColor=#3B8DF1;shape=mxgraph.gcp2.check_available" parent="GvgBn40Q0Mq8urKan_AB-13" vertex="1">
                    <mxGeometry width="80.46" height="70" as="geometry"/>
                </mxCell>
                <mxCell id="GvgBn40Q0Mq8urKan_AB-15" value="Approval" style="text;html=1;strokeColor=none;fillColor=none;align=center;verticalAlign=middle;whiteSpace=wrap;rounded=0;" parent="GvgBn40Q0Mq8urKan_AB-13" vertex="1">
                    <mxGeometry x="10.230000000000018" y="70" width="60" height="30" as="geometry"/>
                </mxCell>
                <mxCell id="GvgBn40Q0Mq8urKan_AB-17" value="artifactアップロード・ダウンロード" style="text;html=1;strokeColor=none;fillColor=none;align=center;verticalAlign=middle;whiteSpace=wrap;rounded=0;" parent="7qJfN5stE_c-aM7IWOPl-1" vertex="1">
                    <mxGeometry x="40" y="88" width="198" height="30" as="geometry"/>
                </mxCell>
                <mxCell id="GvgBn40Q0Mq8urKan_AB-24" style="edgeStyle=none;html=1;entryX=1;entryY=0.5;entryDx=0;entryDy=0;entryPerimeter=0;" parent="7qJfN5stE_c-aM7IWOPl-1" source="GvgBn40Q0Mq8urKan_AB-25" target="GvgBn40Q0Mq8urKan_AB-26" edge="1">
                    <mxGeometry relative="1" as="geometry"/>
                </mxCell>
                <mxCell id="GvgBn40Q0Mq8urKan_AB-25" value="App Runner" style="sketch=0;points=[[0,0,0],[0.25,0,0],[0.5,0,0],[0.75,0,0],[1,0,0],[0,1,0],[0.25,1,0],[0.5,1,0],[0.75,1,0],[1,1,0],[0,0.25,0],[0,0.5,0],[0,0.75,0],[1,0.25,0],[1,0.5,0],[1,0.75,0]];outlineConnect=0;fontColor=#232F3E;gradientColor=#F78E04;gradientDirection=north;fillColor=#D05C17;strokeColor=#ffffff;dashed=0;verticalLabelPosition=bottom;verticalAlign=top;align=center;html=1;fontSize=12;fontStyle=0;aspect=fixed;shape=mxgraph.aws4.resourceIcon;resIcon=mxgraph.aws4.app_runner;" parent="7qJfN5stE_c-aM7IWOPl-1" vertex="1">
                    <mxGeometry x="1000" y="186" width="70" height="70" as="geometry"/>
                </mxCell>
                <mxCell id="GvgBn40Q0Mq8urKan_AB-26" value="Elastic Container Registry(ECR)" style="sketch=0;points=[[0,0,0],[0.25,0,0],[0.5,0,0],[0.75,0,0],[1,0,0],[0,1,0],[0.25,1,0],[0.5,1,0],[0.75,1,0],[1,1,0],[0,0.25,0],[0,0.5,0],[0,0.75,0],[1,0.25,0],[1,0.5,0],[1,0.75,0]];outlineConnect=0;fontColor=#232F3E;gradientColor=#F78E04;gradientDirection=north;fillColor=#D05C17;strokeColor=#ffffff;dashed=0;verticalLabelPosition=bottom;verticalAlign=top;align=center;html=1;fontSize=12;fontStyle=0;aspect=fixed;shape=mxgraph.aws4.resourceIcon;resIcon=mxgraph.aws4.ecr;" parent="7qJfN5stE_c-aM7IWOPl-1" vertex="1">
                    <mxGeometry x="780" y="186" width="70" height="70" as="geometry"/>
                </mxCell>
                <mxCell id="GvgBn40Q0Mq8urKan_AB-27" value="docker push uri:latest" style="text;html=1;strokeColor=none;fillColor=none;align=center;verticalAlign=middle;whiteSpace=wrap;rounded=0;" parent="7qJfN5stE_c-aM7IWOPl-1" vertex="1">
                    <mxGeometry x="600" y="190" width="160" height="30" as="geometry"/>
                </mxCell>
                <mxCell id="GvgBn40Q0Mq8urKan_AB-28" value="docker pull&lt;br&gt;build" style="text;html=1;strokeColor=none;fillColor=none;align=center;verticalAlign=middle;whiteSpace=wrap;rounded=0;" parent="7qJfN5stE_c-aM7IWOPl-1" vertex="1">
                    <mxGeometry x="880" y="186" width="88" height="30" as="geometry"/>
                </mxCell>
                <mxCell id="GvgBn40Q0Mq8urKan_AB-29" style="edgeStyle=none;html=1;" parent="7qJfN5stE_c-aM7IWOPl-1" source="GvgBn40Q0Mq8urKan_AB-14" target="GvgBn40Q0Mq8urKan_AB-10" edge="1">
                    <mxGeometry relative="1" as="geometry"/>
                </mxCell>
                <mxCell id="44kX58vCuS7TW93KnfCB-2" style="edgeStyle=none;html=1;entryX=0;entryY=0.5;entryDx=0;entryDy=0;entryPerimeter=0;" parent="7qJfN5stE_c-aM7IWOPl-1" source="44kX58vCuS7TW93KnfCB-0" target="GvgBn40Q0Mq8urKan_AB-26" edge="1">
                    <mxGeometry relative="1" as="geometry">
                        <Array as="points">
                            <mxPoint x="630" y="355"/>
                            <mxPoint x="630" y="221"/>
                        </Array>
                    </mxGeometry>
                </mxCell>
                <mxCell id="44kX58vCuS7TW93KnfCB-0" value="github actions&lt;br&gt;" style="dashed=0;outlineConnect=0;html=1;align=center;labelPosition=center;verticalLabelPosition=bottom;verticalAlign=top;shape=mxgraph.weblogos.github" parent="7qJfN5stE_c-aM7IWOPl-1" vertex="1">
                    <mxGeometry x="80" y="320" width="75" height="70" as="geometry"/>
                </mxCell>
                <mxCell id="V-s22x-s_HbNQk731vIZ-3" style="edgeStyle=none;html=1;entryX=0;entryY=0.5;entryDx=0;entryDy=0;entryPerimeter=0;" edge="1" parent="7qJfN5stE_c-aM7IWOPl-1" source="V-s22x-s_HbNQk731vIZ-0" target="GvgBn40Q0Mq8urKan_AB-26">
                    <mxGeometry relative="1" as="geometry">
                        <Array as="points">
                            <mxPoint x="630" y="485"/>
                            <mxPoint x="630" y="221"/>
                        </Array>
                    </mxGeometry>
                </mxCell>
                <mxCell id="V-s22x-s_HbNQk731vIZ-0" value="GitLab CI/CD" style="shape=image;verticalLabelPosition=bottom;labelBackgroundColor=#ffffff;verticalAlign=top;aspect=fixed;imageAspect=0;image=data:image/svg+xml,PHN2ZyB4bWxucz0iaHR0cDovL3d3dy53My5vcmcvMjAwMC9zdmciIHZpZXdCb3g9IjAgMCAxMjggMTI4Ij48cGF0aCBmaWxsPSIjRkM2RDI2IiBkPSJNMTI2LjYxNSA3Mi4zMWwtNy4wMzQtMjEuNjQ3TDEwNS42NCA3Ljc2Yy0uNzE2LTIuMjA2LTMuODQtMi4yMDYtNC41NTYgMGwtMTMuOTQgNDIuOTAzSDQwLjg1NkwyNi45MTYgNy43NmMtLjcxNy0yLjIwNi0zLjg0LTIuMjA2LTQuNTU3IDBMOC40MiA1MC42NjQgMS4zODUgNzIuMzFhNC43OTIgNC43OTIgMCAwIDAgMS43NCA1LjM1OEw2NCAxMjEuODk0bDYwLjg3NC00NC4yMjdhNC43OTMgNC43OTMgMCAwIDAgMS43NC01LjM1NyIvPjxwYXRoIGZpbGw9IiNFMjQzMjkiIGQ9Ik02NCAxMjEuODk0bDIzLjE0NC03MS4yM0g0MC44NTZMNjQgMTIxLjg5M3oiLz48cGF0aCBmaWxsPSIjRkM2RDI2IiBkPSJNNjQgMTIxLjg5NGwtMjMuMTQ0LTcxLjIzSDguNDJMNjQgMTIxLjg5M3oiLz48cGF0aCBmaWxsPSIjRkNBMzI2IiBkPSJNOC40MiA1MC42NjNMMS4zODQgNzIuMzFhNC43OSA0Ljc5IDAgMCAwIDEuNzQgNS4zNTdMNjQgMTIxLjg5NCA4LjQyIDUwLjY2NHoiLz48cGF0aCBmaWxsPSIjRTI0MzI5IiBkPSJNOC40MiA1MC42NjNoMzIuNDM2TDI2LjkxNiA3Ljc2Yy0uNzE3LTIuMjA2LTMuODQtMi4yMDYtNC41NTcgMEw4LjQyIDUwLjY2NHoiLz48cGF0aCBmaWxsPSIjRkM2RDI2IiBkPSJNNjQgMTIxLjg5NGwyMy4xNDQtNzEuMjNoMzIuNDM3TDY0IDEyMS44OTN6Ii8+PHBhdGggZmlsbD0iI0ZDQTMyNiIgZD0iTTExOS41OCA1MC42NjNsNy4wMzUgMjEuNjQ3YTQuNzkgNC43OSAwIDAgMS0xLjc0IDUuMzU3TDY0IDEyMS44OTRsNTUuNTgtNzEuMjN6Ii8+PHBhdGggZmlsbD0iI0UyNDMyOSIgZD0iTTExOS41OCA1MC42NjNIODcuMTQ1bDEzLjk0LTQyLjkwMmMuNzE3LTIuMjA2IDMuODQtMi4yMDYgNC41NTcgMGwxMy45NCA0Mi45MDN6Ii8+PC9zdmc+;" vertex="1" parent="7qJfN5stE_c-aM7IWOPl-1">
                    <mxGeometry x="80" y="450" width="70" height="70" as="geometry"/>
                </mxCell>
            </root>
        </mxGraphModel>
    </diagram>
    <diagram name="autodeploy-source" id="P1QY5ETO-zMtKTWR0tGg">
        <mxGraphModel dx="1118" dy="782" grid="1" gridSize="10" guides="1" tooltips="1" connect="1" arrows="1" fold="1" page="1" pageScale="1" pageWidth="827" pageHeight="1169" math="0" shadow="0">
            <root>
                <mxCell id="XkEkQN21cT4o544K6OPU-0"/>
                <mxCell id="XkEkQN21cT4o544K6OPU-1" parent="XkEkQN21cT4o544K6OPU-0"/>
                <mxCell id="XkEkQN21cT4o544K6OPU-15" style="edgeStyle=none;html=1;" parent="XkEkQN21cT4o544K6OPU-1" source="XkEkQN21cT4o544K6OPU-16" target="XkEkQN21cT4o544K6OPU-22" edge="1">
                    <mxGeometry relative="1" as="geometry">
                        <mxPoint x="260" y="165" as="targetPoint"/>
                    </mxGeometry>
                </mxCell>
                <mxCell id="XkEkQN21cT4o544K6OPU-16" value="App Runner" style="sketch=0;points=[[0,0,0],[0.25,0,0],[0.5,0,0],[0.75,0,0],[1,0,0],[0,1,0],[0.25,1,0],[0.5,1,0],[0.75,1,0],[1,1,0],[0,0.25,0],[0,0.5,0],[0,0.75,0],[1,0.25,0],[1,0.5,0],[1,0.75,0]];outlineConnect=0;fontColor=#232F3E;gradientColor=#F78E04;gradientDirection=north;fillColor=#D05C17;strokeColor=#ffffff;dashed=0;verticalLabelPosition=bottom;verticalAlign=top;align=center;html=1;fontSize=12;fontStyle=0;aspect=fixed;shape=mxgraph.aws4.resourceIcon;resIcon=mxgraph.aws4.app_runner;" parent="XkEkQN21cT4o544K6OPU-1" vertex="1">
                    <mxGeometry x="310" y="20" width="70" height="70" as="geometry"/>
                </mxCell>
                <mxCell id="XkEkQN21cT4o544K6OPU-19" value="connect&lt;br&gt;ソースコードpull" style="text;html=1;strokeColor=none;fillColor=none;align=center;verticalAlign=middle;whiteSpace=wrap;rounded=0;" parent="XkEkQN21cT4o544K6OPU-1" vertex="1">
                    <mxGeometry x="140" y="20" width="130" height="30" as="geometry"/>
                </mxCell>
                <mxCell id="XkEkQN21cT4o544K6OPU-22" value="github" style="dashed=0;outlineConnect=0;html=1;align=center;labelPosition=center;verticalLabelPosition=bottom;verticalAlign=top;shape=mxgraph.weblogos.github" parent="XkEkQN21cT4o544K6OPU-1" vertex="1">
                    <mxGeometry x="20" y="20" width="75" height="75" as="geometry"/>
                </mxCell>
            </root>
        </mxGraphModel>
    </diagram>
</mxfile>